<svg xmlns="http://www.w3.org/2000/svg" viewBox="0 0 16 16" fill="none">
  <g transform="translate(8 8) scale(1.14) translate(-8 -8)">
    <path fill="currentColor" d="M7.52 1.02c-.3 0-.55.25-.55.55v.58l-.7-.44a.55.55 0 0 0-.74.17.55.55 0 0 0 .17.75l.55.34-.95.12a.55.55 0 0 0-.48.61c.04.3.31.52.61.48l1.7-.22c.26.18.56.28.87.28.32 0 .62-.1.88-.28l1.7.22a.55.55 0 1 0 .14-1.09l-.95-.12.55-.34a.55.55 0 1 0-.57-.94l-.7.44v-.58a.55.55 0 0 0-.55-.55h-.98Z"/>
    <path fill="currentColor" d="M8 3.35c-1.5 0-2.86.38-3.91 1.17C2.9 5.42 2.22 6.83 2.22 8.45c0 1.76.79 3.27 2.06 4.21.99.73 2.24 1.04 3.72 1.04 1.48 0 2.73-.31 3.72-1.04 1.27-.94 2.06-2.45 2.06-4.21 0-1.62-.68-3.03-1.87-3.93C10.86 3.73 9.5 3.35 8 3.35Zm0 .95c1.25 0 2.35.31 3.23.97.95.72 1.49 1.83 1.49 3.18 0 1.44-.62 2.62-1.67 3.39-.82.6-1.86.86-3.05.86-1.19 0-2.23-.26-3.05-.86-1.05-.77-1.67-1.95-1.67-3.39 0-1.35.54-2.46 1.49-3.18.88-.66 1.98-.97 3.23-.97Z"/>
    <path fill="currentColor" d="M7.98 5.2c.41 0 .73.33.73.73v2.35c0 .18-.08.35-.23.49l-1.45 1.3a.73.73 0 1 1-.98-1.07l1.2-1.09V5.93c0-.4.33-.73.73-.73Z"/>
  </g>
</svg>
